<?xml version="1.0" encoding="UTF-8" standalone="no"?>
<svg
        width="300"
        height="460"
        viewBox="0 0 300 460"
        fill="none"
        version="1.1"
        id="svg257"
        xmlns="http://www.w3.org/2000/svg"
        xmlns:svg="http://www.w3.org/2000/svg">
    <defs
            id="defs261"/>
    <rect
            width="300"
            height="460"
            fill="COLOR_TEMPLATE"
            id="rect230"/>
    <path d="M199.2 186.912H97.6201V53.1H199.2V186.912ZM100.02 184.512H196.8V55.5H100.02V184.512V184.512Z" fill="FOREGROUND_COLOR"/>
    <path d="M143.988 109.5H113.904V71.1H143.988V109.5ZM116.304 107.1H141.588V73.5H116.304V107.1Z" fill="FOREGROUND_COLOR"/>
    <path d="M186 107.1H156V109.5H186V107.1Z" fill="FOREGROUND_COLOR"/>
    <path d="M186 89.1H156V91.5H186V89.1Z" fill="FOREGROUND_COLOR"/>
    <path d="M186 71.1H156V73.5H186V71.1Z" fill="FOREGROUND_COLOR"/>
    <path d="M144 125.1H114V127.5H144V125.1Z" fill="FOREGROUND_COLOR"/>
    <path d="M144 143.1H114V145.5H144V143.1Z" fill="FOREGROUND_COLOR"/>
    <path d="M144 161.1H114V163.5H144V161.1Z" fill="FOREGROUND_COLOR"/>
    <path d="M186 125.1H156V127.5H186V125.1Z" fill="FOREGROUND_COLOR"/>
    <path d="M186 143.1H156V145.5H186V143.1Z" fill="FOREGROUND_COLOR"/>
    <path d="M186 161.1H156V163.5H186V161.1Z" fill="FOREGROUND_COLOR"/>
    <line
            x1="125"
            y1="227"
            x2="175"
            y2="227"
            stroke="FOREGROUND_COLOR"
            stroke-width="2"
            fill="FOREGROUND_COLOR"
            id="line254"/>
    TITLE_TEMPLATE
</svg>
