<svg width="300" height="460" viewBox="0 0 300 460" fill="none" xmlns="http://www.w3.org/2000/svg">
<rect width="300" height="460" fill="COLOR_TEMPLATE"/>
<path d="M102.282 80.8171L101.811 83.1705L137.806 90.3695L138.277 88.0162L102.282 80.8171Z" fill="black"/>
<path d="M102.277 100.82L101.807 103.174L137.802 110.373L138.272 108.019L102.277 100.82Z" fill="black"/>
<path d="M102.285 120.823L101.814 123.177L137.809 130.376L138.28 128.023L102.285 120.823Z" fill="black"/>
<path d="M102.281 140.824L101.81 143.178L137.805 150.377L138.276 148.023L102.281 140.824Z" fill="black"/>
<path d="M197.799 80.8213L161.805 88.0266L162.276 90.3799L198.27 83.1746L197.799 80.8213Z" fill="black"/>
<path d="M197.801 100.832L161.807 108.038L162.278 110.391L198.272 103.186L197.801 100.832Z" fill="black"/>
<path d="M197.801 120.819L161.807 128.025L162.278 130.378L198.272 123.173L197.801 120.819Z" fill="black"/>
<path d="M197.804 140.818L161.81 148.023L162.281 150.377L198.275 143.171L197.804 140.818Z" fill="black"/>
<path d="M211.2 68.8V56.536L150.024 68.776L88.848 56.536V68.8H78L78.048 173.2H221.964L222.012 68.8H211.212H211.2ZM151.248 70.972L208.8 59.464V159.016L151.248 170.524V70.972ZM91.248 59.464L148.8 70.972V170.524L91.248 159.016V59.464ZM80.4 71.2H88.848V160.984L137.988 170.8H80.448L80.4 71.2ZM219.552 170.8H162.024L211.2 160.984V71.2H219.6L219.552 170.8Z" fill="black"/>
<line x1="125" y1="227" x2="175" y2="227" stroke="#212121" stroke-width="2"/>
    <text id="title" x="50%" y="60%" dominant-baseline="middle" text-anchor="middle" fill="#000000"
          font-family="IBM Plex Sans Medium" >
        TITLE_TEMPLATE
    </text>
</svg>
