<svg width="300" height="460" viewBox="0 0 300 460" fill="none" xmlns="http://www.w3.org/2000/svg">
<rect width="300" height="460" fill="COLOR_TEMPLATE"/>
    <path d="M102.282 82.8171L101.811 85.1705L137.806 92.3695L138.277 90.0162L102.282 82.8171Z" fill="FOREGROUND_COLOR"/>
    <path d="M102.277 102.82L101.807 105.174L137.802 112.373L138.272 110.019L102.277 102.82Z" fill="FOREGROUND_COLOR"/>
    <path d="M102.285 122.823L101.814 125.177L137.809 132.376L138.28 130.023L102.285 122.823Z" fill="FOREGROUND_COLOR"/>
    <path d="M102.281 142.824L101.81 145.178L137.805 152.377L138.276 150.023L102.281 142.824Z" fill="FOREGROUND_COLOR"/>
    <path d="M197.799 82.8213L161.805 90.0266L162.276 92.3799L198.27 85.1746L197.799 82.8213Z" fill="FOREGROUND_COLOR"/>
    <path d="M197.801 102.832L161.807 110.038L162.278 112.391L198.272 105.186L197.801 102.832Z" fill="FOREGROUND_COLOR"/>
    <path d="M197.801 122.819L161.807 130.025L162.278 132.378L198.272 125.173L197.801 122.819Z" fill="FOREGROUND_COLOR"/>
    <path d="M197.804 142.818L161.81 150.023L162.281 152.377L198.275 145.171L197.804 142.818Z" fill="FOREGROUND_COLOR"/>
    <path d="M211.2 70.8V58.536L150.024 70.776L88.848 58.536V70.8H78L78.048 175.2H221.964L222.012 70.8H211.212H211.2ZM151.248 72.972L208.8 61.464V161.016L151.248 172.524V72.972ZM91.248 61.464L148.8 72.972V172.524L91.248 161.016V61.464ZM80.4 73.2H88.848V162.984L137.988 172.8H80.448L80.4 73.2ZM219.552 172.8H162.024L211.2 162.984V73.2H219.6L219.552 172.8Z" fill="FOREGROUND_COLOR"/>
<line x1="125" y1="227" x2="175" y2="227" stroke="FOREGROUND_COLOR" stroke-width="2"/>
TITLE_TEMPLATE
</svg>
