<?xml version="1.0" encoding="UTF-8" standalone="no"?>
<svg
   width="300"
   height="460"
   viewBox="0 0 300 460"
   fill="none"
   version="1.1"
   id="svg447"
   xmlns="http://www.w3.org/2000/svg"
   xmlns:svg="http://www.w3.org/2000/svg">
  <defs
     id="defs451" />
  <rect
     width="300"
     height="460"
     fill="COLOR_TEMPLATE"
     id="rect416" />
  <path
     d="m 166.07712,137.69021 c 4.06745,0 7.37787,-3.16458 7.37787,-7.05284 0,-3.88825 -3.31042,-7.05283 -7.37787,-7.05283 -4.06745,0 -7.37787,3.16458 -7.37787,7.05283 0,3.88826 3.31042,7.05284 7.37787,7.05284 z m 0,-11.65251 c 2.65604,0 4.81166,2.06065 4.81166,4.59967 0,2.53902 -2.15562,4.59968 -4.81166,4.59968 -2.65603,0 -4.81165,-2.06066 -4.81165,-4.59968 0,-2.53902 2.15562,-4.59967 4.81165,-4.59967 z"
     fill="#000000"
     id="path418"
     style="stroke-width:1.25453" />
  <path
     d="m 180.70455,151.67322 c 4.06746,0 7.37787,-3.16458 7.37787,-7.05284 0,-3.88826 -3.31041,-7.05283 -7.37787,-7.05283 -4.06745,0 -7.37787,3.16457 -7.37787,7.05283 0,3.88826 3.31042,7.05284 7.37787,7.05284 z m 0,-11.65251 c 2.65604,0 4.81166,2.06065 4.81166,4.59967 0,2.53902 -2.15562,4.59968 -4.81166,4.59968 -2.65603,0 -4.81165,-2.06066 -4.81165,-4.59968 0,-2.53902 2.15562,-4.59967 4.81165,-4.59967 z"
     fill="#000000"
     id="path420"
     style="stroke-width:1.25453" />
  <path
     d="m 195.33198,151.55056 c -4.06745,0 -7.37787,3.16457 -7.37787,7.05283 0,3.88826 3.31042,7.05283 7.37787,7.05283 4.06746,0 7.37788,-3.16457 7.37788,-7.05283 0,-3.88826 -3.31042,-7.05283 -7.37788,-7.05283 z m 0,11.6525 c -2.65603,0 -4.81165,-2.06065 -4.81165,-4.59967 0,-2.53902 2.15562,-4.59967 4.81165,-4.59967 2.65604,0 4.81166,2.06065 4.81166,4.59967 0,2.53902 -2.15562,4.59967 -4.81166,4.59967 z"
     fill="#000000"
     id="path422"
     style="stroke-width:1.25453" />
  <path
     d="m 195.33198,137.69021 c 4.06746,0 7.37788,-3.16458 7.37788,-7.05284 0,-3.88825 -3.31042,-7.05283 -7.37788,-7.05283 -4.06745,0 -7.37787,3.16458 -7.37787,7.05283 0,3.88826 3.31042,7.05284 7.37787,7.05284 z m 0,-11.65251 c 2.65604,0 4.81166,2.06065 4.81166,4.59967 0,2.53902 -2.15562,4.59968 -4.81166,4.59968 -2.65603,0 -4.81165,-2.06066 -4.81165,-4.59968 0,-2.53902 2.15562,-4.59967 4.81165,-4.59967 z"
     fill="#000000"
     id="path424"
     style="stroke-width:1.25453" />
  <path
     d="m 166.07712,165.65622 c 4.06745,0 7.37787,-3.16457 7.37787,-7.05283 0,-3.88826 -3.31042,-7.05283 -7.37787,-7.05283 -4.06745,0 -7.37787,3.16457 -7.37787,7.05283 0,3.88826 3.31042,7.05283 7.37787,7.05283 z m 0,-11.6525 c 2.65604,0 4.81166,2.06065 4.81166,4.59967 0,2.53902 -2.15562,4.59967 -4.81166,4.59967 -2.65603,0 -4.81165,-2.06065 -4.81165,-4.59967 0,-2.53902 2.15562,-4.59967 4.81165,-4.59967 z"
     fill="#000000"
     id="path426"
     style="stroke-width:1.25453" />
  <path
     d="m 105.12949,65.322006 c -4.06745,0 -7.377869,3.164575 -7.377869,7.052833 0,3.888257 3.310419,7.052833 7.377869,7.052833 4.06745,0 7.37787,-3.164576 7.37787,-7.052833 0,-3.888258 -3.31042,-7.052833 -7.37787,-7.052833 z m 0,11.652507 c -2.65603,0 -4.81165,-2.060654 -4.81165,-4.599674 0,-2.53902 2.15562,-4.599674 4.81165,-4.599674 2.65603,0 4.81166,2.060654 4.81166,4.599674 0,2.53902 -2.15562,4.599674 -4.81166,4.599674 z"
     fill="#000000"
     id="path428"
     style="stroke-width:1.25453" />
  <path
     d="m 134.38435,93.288022 c -4.06745,0 -7.37787,3.164576 -7.37787,7.052838 0,3.88825 3.31042,7.05283 7.37787,7.05283 4.06746,0 7.37788,-3.16458 7.37788,-7.05283 0,-3.888262 -3.31042,-7.052838 -7.37788,-7.052838 z m 0,11.652508 c -2.65603,0 -4.81165,-2.06065 -4.81165,-4.59967 0,-2.539024 2.15562,-4.599678 4.81165,-4.599678 2.65604,0 4.81166,2.060654 4.81166,4.599678 0,2.53902 -2.15562,4.59967 -4.81166,4.59967 z"
     fill="#000000"
     id="path430"
     style="stroke-width:1.25453" />
  <path
     d="m 134.38435,65.322006 c -4.06745,0 -7.37787,3.164575 -7.37787,7.052833 0,3.888257 3.31042,7.052833 7.37787,7.052833 4.06746,0 7.37788,-3.164576 7.37788,-7.052833 0,-3.888258 -3.31042,-7.052833 -7.37788,-7.052833 z m 0,11.652507 c -2.65603,0 -4.81165,-2.060654 -4.81165,-4.599674 0,-2.53902 2.15562,-4.599674 4.81165,-4.599674 2.65604,0 4.81166,2.060654 4.81166,4.599674 0,2.53902 -2.15562,4.599674 -4.81166,4.599674 z"
     fill="#000000"
     id="path432"
     style="stroke-width:1.25453" />
  <path
     d="m 105.12949,93.288022 c -4.06745,0 -7.377869,3.164576 -7.377869,7.052838 0,3.88825 3.310419,7.05283 7.377869,7.05283 4.06745,0 7.37787,-3.16458 7.37787,-7.05283 0,-3.888262 -3.31042,-7.052838 -7.37787,-7.052838 z m 0,11.652508 c -2.65603,0 -4.81165,-2.06065 -4.81165,-4.59967 0,-2.539024 2.15562,-4.599678 4.81165,-4.599678 2.65603,0 4.81166,2.060654 4.81166,4.599678 0,2.53902 -2.15562,4.59967 -4.81166,4.59967 z"
     fill="#000000"
     id="path434"
     style="stroke-width:1.25453" />
  <path
     d="m 134.38435,137.69021 c 4.06746,0 7.37788,-3.16458 7.37788,-7.05284 0,-3.88825 -3.31042,-7.05283 -7.37788,-7.05283 -4.06745,0 -7.37787,3.16458 -7.37787,7.05283 0,3.88826 3.31042,7.05284 7.37787,7.05284 z m 0,-11.65251 c 2.65604,0 4.81166,2.06065 4.81166,4.59967 0,2.53902 -2.15562,4.59968 -4.81166,4.59968 -2.65603,0 -4.81165,-2.06066 -4.81165,-4.59968 0,-2.53902 2.15562,-4.59967 4.81165,-4.59967 z"
     fill="#000000"
     id="path436"
     style="stroke-width:1.25453" />
  <path
     d="m 105.12949,165.65622 c 4.06745,0 7.37787,-3.16457 7.37787,-7.05283 0,-3.88826 -3.31042,-7.05283 -7.37787,-7.05283 -4.06745,0 -7.377869,3.16457 -7.377869,7.05283 0,3.88826 3.310419,7.05283 7.377869,7.05283 z m 0,-11.6525 c 2.65603,0 4.81166,2.06065 4.81166,4.59967 0,2.53902 -2.15562,4.59967 -4.81166,4.59967 -2.65603,0 -4.81165,-2.06065 -4.81165,-4.59967 0,-2.53902 2.15562,-4.59967 4.81165,-4.59967 z"
     fill="#000000"
     id="path438"
     style="stroke-width:1.25453" />
  <path
     d="M 88,56 V 174.97823 H 212.46148 V 56 Z m 2.566216,2.453159 H 148.94763 V 114.26254 H 90.566216 Z M 148.94763,172.52507 H 90.566216 v -55.80938 h 58.381414 z m 60.94763,0 h -58.38141 v -55.80938 h 58.38141 z M 151.51385,114.26254 V 58.453159 h 58.38141 v 55.809381 z"
     fill="#000000"
     id="path440"
     style="stroke-width:1.25453" />
  <path
     d="m 180.70455,79.305014 c -4.06745,0 -7.37787,3.164576 -7.37787,7.052833 0,3.888258 3.31042,7.052833 7.37787,7.052833 4.06746,0 7.37787,-3.164575 7.37787,-7.052833 0,-3.888257 -3.31041,-7.052833 -7.37787,-7.052833 z m 0,11.652507 c -2.65603,0 -4.81165,-2.060654 -4.81165,-4.599674 0,-2.53902 2.15562,-4.599674 4.81165,-4.599674 2.65604,0 4.81166,2.060654 4.81166,4.599674 0,2.53902 -2.15562,4.599674 -4.81166,4.599674 z"
     fill="#000000"
     id="path442"
     style="stroke-width:1.25453" />
  <line
     x1="125"
     y1="227"
     x2="175"
     y2="227"
     stroke="#212121"
     stroke-width="2"
     fill="black"
     id="line444" />
  <text
     id="title"
     x="50%"
     y="60%"
     dominant-baseline="middle"
     text-anchor="middle"
     fill="#000000"
     font-family="IBM Plex Sans Medium"
     >
        TITLE_TEMPLATE
    </text>
</svg>
