<?xml version="1.0" encoding="UTF-8" standalone="no"?>
<svg
   width="300"
   height="460"
   viewBox="0 0 300 460"
   fill="none"
   version="1.1"
   id="svg447"
   xmlns="http://www.w3.org/2000/svg"
   xmlns:svg="http://www.w3.org/2000/svg">
  <defs
     id="defs451" />
  <rect
     width="300"
     height="460"
     fill="COLOR_TEMPLATE"
     id="rect416" />
  <path d="M164.82 141.72C168.624 141.72 171.72 138.624 171.72 134.82C171.72 131.016 168.624 127.92 164.82 127.92C161.016 127.92 157.92 131.016 157.92 134.82C157.92 138.624 161.016 141.72 164.82 141.72ZM164.82 130.32C167.304 130.32 169.32 132.336 169.32 134.82C169.32 137.304 167.304 139.32 164.82 139.32C162.336 139.32 160.32 137.304 160.32 134.82C160.32 132.336 162.336 130.32 164.82 130.32Z" fill="FOREGROUND_COLOR"/>
  <path d="M178.5 155.4C182.304 155.4 185.4 152.304 185.4 148.5C185.4 144.696 182.304 141.6 178.5 141.6C174.696 141.6 171.6 144.696 171.6 148.5C171.6 152.304 174.696 155.4 178.5 155.4ZM178.5 144C180.984 144 183 146.016 183 148.5C183 150.984 180.984 153 178.5 153C176.016 153 174 150.984 174 148.5C174 146.016 176.016 144 178.5 144Z" fill="FOREGROUND_COLOR"/>
  <path d="M192.18 155.28C188.376 155.28 185.28 158.376 185.28 162.18C185.28 165.984 188.376 169.08 192.18 169.08C195.984 169.08 199.08 165.984 199.08 162.18C199.08 158.376 195.984 155.28 192.18 155.28ZM192.18 166.68C189.696 166.68 187.68 164.664 187.68 162.18C187.68 159.696 189.696 157.68 192.18 157.68C194.664 157.68 196.68 159.696 196.68 162.18C196.68 164.664 194.664 166.68 192.18 166.68Z" fill="FOREGROUND_COLOR"/>
  <path d="M192.18 141.72C195.984 141.72 199.08 138.624 199.08 134.82C199.08 131.016 195.984 127.92 192.18 127.92C188.376 127.92 185.28 131.016 185.28 134.82C185.28 138.624 188.376 141.72 192.18 141.72ZM192.18 130.32C194.664 130.32 196.68 132.336 196.68 134.82C196.68 137.304 194.664 139.32 192.18 139.32C189.696 139.32 187.68 137.304 187.68 134.82C187.68 132.336 189.696 130.32 192.18 130.32Z" fill="FOREGROUND_COLOR"/>
  <path d="M164.82 169.08C168.624 169.08 171.72 165.984 171.72 162.18C171.72 158.376 168.624 155.28 164.82 155.28C161.016 155.28 157.92 158.376 157.92 162.18C157.92 165.984 161.016 169.08 164.82 169.08ZM164.82 157.68C167.304 157.68 169.32 159.696 169.32 162.18C169.32 164.664 167.304 166.68 164.82 166.68C162.336 166.68 160.32 164.664 160.32 162.18C160.32 159.696 162.336 157.68 164.82 157.68Z" fill="FOREGROUND_COLOR"/>
  <path d="M107.82 70.92C104.016 70.92 100.92 74.016 100.92 77.82C100.92 81.624 104.016 84.72 107.82 84.72C111.624 84.72 114.72 81.624 114.72 77.82C114.72 74.016 111.624 70.92 107.82 70.92ZM107.82 82.32C105.336 82.32 103.32 80.304 103.32 77.82C103.32 75.336 105.336 73.32 107.82 73.32C110.304 73.32 112.32 75.336 112.32 77.82C112.32 80.304 110.304 82.32 107.82 82.32Z" fill="FOREGROUND_COLOR"/>
  <path d="M135.18 98.28C131.376 98.28 128.28 101.376 128.28 105.18C128.28 108.984 131.376 112.08 135.18 112.08C138.984 112.08 142.08 108.984 142.08 105.18C142.08 101.376 138.984 98.28 135.18 98.28V98.28ZM135.18 109.68C132.696 109.68 130.68 107.664 130.68 105.18C130.68 102.696 132.696 100.68 135.18 100.68C137.664 100.68 139.68 102.696 139.68 105.18C139.68 107.664 137.664 109.68 135.18 109.68V109.68Z" fill="FOREGROUND_COLOR"/>
  <path d="M135.18 70.92C131.376 70.92 128.28 74.016 128.28 77.82C128.28 81.624 131.376 84.72 135.18 84.72C138.984 84.72 142.08 81.624 142.08 77.82C142.08 74.016 138.984 70.92 135.18 70.92V70.92ZM135.18 82.32C132.696 82.32 130.68 80.304 130.68 77.82C130.68 75.336 132.696 73.32 135.18 73.32C137.664 73.32 139.68 75.336 139.68 77.82C139.68 80.304 137.664 82.32 135.18 82.32V82.32Z" fill="FOREGROUND_COLOR"/>
  <path d="M107.82 98.28C104.016 98.28 100.92 101.376 100.92 105.18C100.92 108.984 104.016 112.08 107.82 112.08C111.624 112.08 114.72 108.984 114.72 105.18C114.72 101.376 111.624 98.28 107.82 98.28V98.28ZM107.82 109.68C105.336 109.68 103.32 107.664 103.32 105.18C103.32 102.696 105.336 100.68 107.82 100.68C110.304 100.68 112.32 102.696 112.32 105.18C112.32 107.664 110.304 109.68 107.82 109.68Z" fill="FOREGROUND_COLOR"/>
  <path d="M135.18 141.72C138.984 141.72 142.08 138.624 142.08 134.82C142.08 131.016 138.984 127.92 135.18 127.92C131.376 127.92 128.28 131.016 128.28 134.82C128.28 138.624 131.376 141.72 135.18 141.72V141.72ZM135.18 130.32C137.664 130.32 139.68 132.336 139.68 134.82C139.68 137.304 137.664 139.32 135.18 139.32C132.696 139.32 130.68 137.304 130.68 134.82C130.68 132.336 132.696 130.32 135.18 130.32V130.32Z" fill="FOREGROUND_COLOR"/>
  <path d="M107.82 169.08C111.624 169.08 114.72 165.984 114.72 162.18C114.72 158.376 111.624 155.28 107.82 155.28C104.016 155.28 100.92 158.376 100.92 162.18C100.92 165.984 104.016 169.08 107.82 169.08ZM107.82 157.68C110.304 157.68 112.32 159.696 112.32 162.18C112.32 164.664 110.304 166.68 107.82 166.68C105.336 166.68 103.32 164.664 103.32 162.18C103.32 159.696 105.336 157.68 107.82 157.68Z" fill="FOREGROUND_COLOR"/>
  <path d="M91.7998 61.8V178.2H208.2V61.8H91.7998ZM94.1998 64.2H148.8V118.8H94.1998V64.2ZM148.8 175.8H94.1998V121.2H148.8V175.8ZM205.8 175.8H151.2V121.2H205.8V175.8ZM151.2 118.8V64.2H205.8V118.8H151.2Z" fill="FOREGROUND_COLOR"/>
  <path d="M178.5 84.6C174.696 84.6 171.6 87.696 171.6 91.5C171.6 95.304 174.696 98.4 178.5 98.4C182.304 98.4 185.4 95.304 185.4 91.5C185.4 87.696 182.304 84.6 178.5 84.6ZM178.5 96C176.016 96 174 93.984 174 91.5C174 89.016 176.016 87 178.5 87C180.984 87 183 89.016 183 91.5C183 93.984 180.984 96 178.5 96Z" fill="FOREGROUND_COLOR"/>
  <line
     x1="125"
     y1="227"
     x2="175"
     y2="227"
     stroke="FOREGROUND_COLOR"
     stroke-width="2"
     fill="FOREGROUND_COLOR"
     id="line444" />
  TITLE_TEMPLATE
</svg>
