<?xml version="1.0" encoding="UTF-8" standalone="no"?>
<svg
   width="300"
   height="460"
   viewBox="0 0 300 460"
   fill="none"
   version="1.1"
   id="svg505"
   xmlns="http://www.w3.org/2000/svg"
   xmlns:svg="http://www.w3.org/2000/svg">
  <defs
     id="defs509" />
  <rect
     width="300"
     height="460"
     fill="COLOR_TEMPLATE"
     id="rect488" />
  <path d="M190.8 80.868C186.9 80.868 183.732 84.036 183.732 87.936C183.732 91.836 186.9 95.004 190.8 95.004C194.7 95.004 197.868 91.836 197.868 87.936C197.868 84.036 194.7 80.868 190.8 80.868ZM190.8 92.604C188.232 92.604 186.132 90.504 186.132 87.936C186.132 85.368 188.232 83.268 190.8 83.268C193.368 83.268 195.468 85.368 195.468 87.936C195.468 90.504 193.368 92.604 190.8 92.604Z" fill="FOREGROUND_COLOR"/>
  <path d="M205.464 95.532C201.564 95.532 198.396 98.7 198.396 102.6C198.396 106.5 201.564 109.668 205.464 109.668C209.364 109.668 212.532 106.5 212.532 102.6C212.532 98.7 209.364 95.532 205.464 95.532ZM205.464 107.268C202.896 107.268 200.796 105.168 200.796 102.6C200.796 100.032 202.896 97.932 205.464 97.932C208.032 97.932 210.132 100.032 210.132 102.6C210.132 105.168 208.032 107.268 205.464 107.268Z" fill="FOREGROUND_COLOR"/>
  <path d="M176.4 95.532C172.5 95.532 169.332 98.7 169.332 102.6C169.332 106.5 172.5 109.668 176.4 109.668C180.3 109.668 183.468 106.5 183.468 102.6C183.468 98.7 180.3 95.532 176.4 95.532ZM176.4 107.268C173.832 107.268 171.732 105.168 171.732 102.6C171.732 100.032 173.832 97.932 176.4 97.932C178.968 97.932 181.068 100.032 181.068 102.6C181.068 105.168 178.968 107.268 176.4 107.268Z" fill="FOREGROUND_COLOR"/>
  <path d="M190.8 109.932C186.9 109.932 183.732 113.1 183.732 117C183.732 120.9 186.9 124.068 190.8 124.068C194.7 124.068 197.868 120.9 197.868 117C197.868 113.1 194.7 109.932 190.8 109.932ZM190.8 121.668C188.232 121.668 186.132 119.568 186.132 117C186.132 114.432 188.232 112.332 190.8 112.332C193.368 112.332 195.468 114.432 195.468 117C195.468 119.568 193.368 121.668 190.8 121.668Z" fill="FOREGROUND_COLOR"/>
  <path d="M115.2 84.6H100.8V96.6H88.7998V111H100.8V123H115.2V111H127.2V96.6H115.2V84.6ZM124.8 99V108.6H112.8V120.6H103.2V108.6H91.1998V99H103.2V87H112.8V99H124.8Z" fill="FOREGROUND_COLOR"/>
  <path d="M191.472 72.192H108.792C91.8481 72.192 78.0601 85.98 78.0601 102.924V152.532C78.0601 164.592 87.8761 174.408 99.9361 174.408C111.996 174.408 121.812 164.592 121.812 152.532V149.88C123.276 150.444 124.86 150.78 126.516 150.78C133.692 150.78 139.524 144.948 139.524 137.772C139.524 137.172 139.464 136.596 139.392 136.02H160.884C160.8 136.596 160.752 137.172 160.752 137.772C160.752 144.948 166.584 150.78 173.76 150.78C175.416 150.78 177 150.456 178.464 149.88V152.532C178.464 164.592 188.28 174.408 200.34 174.408C212.4 174.408 222.216 164.592 222.216 152.532V102.924C222.216 85.98 208.428 72.192 191.484 72.192H191.472ZM126.504 148.38C120.648 148.38 115.896 143.616 115.896 137.772C115.896 131.928 120.66 127.164 126.504 127.164C132.348 127.164 137.112 131.928 137.112 137.772C137.112 143.616 132.348 148.38 126.504 148.38ZM163.14 137.772C163.14 131.916 167.904 127.164 173.748 127.164C179.592 127.164 184.356 131.928 184.356 137.772C184.356 143.616 179.592 148.38 173.748 148.38C167.904 148.38 163.14 143.616 163.14 137.772ZM219.804 152.532C219.804 163.272 211.068 172.008 200.328 172.008C189.588 172.008 180.852 163.272 180.852 152.532V148.656C184.404 146.328 186.756 142.32 186.756 137.772C186.756 130.596 180.924 124.764 173.748 124.764C168.024 124.764 163.164 128.484 161.424 133.62H138.816C137.076 128.472 132.216 124.764 126.492 124.764C119.316 124.764 113.484 130.596 113.484 137.772C113.484 142.32 115.836 146.328 119.388 148.656V152.532C119.388 163.272 110.652 172.008 99.9121 172.008C89.1721 172.008 80.4361 163.272 80.4361 152.532V102.924C80.4361 87.3 93.1441 74.592 108.768 74.592H191.472C207.096 74.592 219.804 87.3 219.804 102.924V152.532V152.532Z" fill="FOREGROUND_COLOR"/>
  <line
     x1="125"
     y1="227"
     x2="175"
     y2="227"
     stroke="FOREGROUND_COLOR"
     stroke-width="2"
     fill="FOREGROUND_COLOR"
     id="line502" />
  TITLE_TEMPLATE
</svg>
