<?xml version="1.0" encoding="UTF-8" standalone="no"?>
<svg
   width="300"
   height="460"
   viewBox="0 0 300 460"
   fill="none"
   version="1.1"
   id="svg505"
   xmlns="http://www.w3.org/2000/svg"
   xmlns:svg="http://www.w3.org/2000/svg">
  <defs
     id="defs509" />
  <rect
     width="300"
     height="460"
     fill="COLOR_TEMPLATE"
     id="rect488" />
  <path
     d="m 182.2179,63.23 c -3.25,0 -5.89,2.64 -5.89,5.89 0,3.25 2.64,5.89 5.89,5.89 3.25,0 5.89,-2.64 5.89,-5.89 0,-3.25 -2.64,-5.89 -5.89,-5.89 z m 0,9.78 c -2.14,0 -3.89,-1.75 -3.89,-3.89 0,-2.14 1.75,-3.89 3.89,-3.89 2.14,0 3.89,1.75 3.89,3.89 0,2.14 -1.75,3.89 -3.89,3.89 z"
     fill="#000000"
     id="path490" />
  <path
     d="m 194.4379,75.45 c -3.25,0 -5.89,2.64 -5.89,5.89 0,3.25 2.64,5.89 5.89,5.89 3.25,0 5.89,-2.64 5.89,-5.89 0,-3.25 -2.64,-5.89 -5.89,-5.89 z m 0,9.78 c -2.14,0 -3.89,-1.75 -3.89,-3.89 0,-2.14 1.75,-3.89 3.89,-3.89 2.14,0 3.89,1.75 3.89,3.89 0,2.14 -1.75,3.89 -3.89,3.89 z"
     fill="#000000"
     id="path492" />
  <path
     d="m 170.2179,75.45 c -3.25,0 -5.89,2.64 -5.89,5.89 0,3.25 2.64,5.89 5.89,5.89 3.25,0 5.89,-2.64 5.89,-5.89 0,-3.25 -2.64,-5.89 -5.89,-5.89 z m 0,9.78 c -2.14,0 -3.89,-1.75 -3.89,-3.89 0,-2.14 1.75,-3.89 3.89,-3.89 2.14,0 3.89,1.75 3.89,3.89 0,2.14 -1.75,3.89 -3.89,3.89 z"
     fill="#000000"
     id="path494" />
  <path
     d="m 182.2179,87.45 c -3.25,0 -5.89,2.64 -5.89,5.890002 0,3.25 2.64,5.89 5.89,5.89 3.25,0 5.89,-2.64 5.89,-5.89 0,-3.250002 -2.64,-5.890002 -5.89,-5.890002 z m 0,9.780002 c -2.14,0 -3.89,-1.75 -3.89,-3.89 0,-2.140002 1.75,-3.890002 3.89,-3.890002 2.14,0 3.89,1.75 3.89,3.890002 0,2.14 -1.75,3.89 -3.89,3.89 z"
     fill="#000000"
     id="path496" />
  <path
     d="m 119.2179,66.34 h -12 v 10 H 97.217899 v 12 H 107.2179 v 10.000002 h 12 V 88.34 h 10 v -12 h -10 z m 8,12 v 8 h -10 v 10.000002 h -8 V 86.34 H 99.217899 v -8 H 109.2179 v -10 h 8 v 10 z"
     fill="#000000"
     id="path498" />
  <path
     d="m 182.7779,56 h -68.9 C 99.757899,56 88.267899,67.49 88.267899,81.61 v 41.34 c 0,10.05 8.18,18.23 18.230001,18.23 10.05,0 18.23,-8.18 18.23,-18.23 v -2.21 c 1.22,0.47 2.54,0.75 3.92,0.75 5.98,0 10.84,-4.86 10.84,-10.84 0,-0.5 -0.05,-0.98 -0.11,-1.46 h 17.91 c -0.07,0.48 -0.11,0.96 -0.11,1.46 0,5.98 4.86,10.84 10.84,10.84 1.38,0 2.7,-0.27 3.92,-0.75 v 2.21 c 0,10.05 8.18,18.23 18.23,18.23 10.05,0 18.23,-8.18 18.23,-18.23 V 81.61 c 0,-14.12 -11.49,-25.61 -25.61,-25.61 z m -54.14,63.49 c -4.88,0 -8.84,-3.97 -8.84,-8.84 0,-4.87 3.97,-8.84 8.84,-8.84 4.87,0 8.84,3.97 8.84,8.84 0,4.87 -3.97,8.84 -8.84,8.84 z m 30.53,-8.84 c 0,-4.88 3.97,-8.84 8.84,-8.84 4.87,0 8.84,3.97 8.84,8.84 0,4.87 -3.97,8.84 -8.84,8.84 -4.87,0 -8.84,-3.97 -8.84,-8.84 z m 47.22,12.3 c 0,8.95 -7.28,16.23 -16.23,16.23 -8.95,0 -16.23,-7.28 -16.23,-16.23 v -3.23 c 2.96,-1.94 4.92,-5.28 4.92,-9.07 0,-5.98 -4.86,-10.839998 -10.84,-10.839998 -4.77,0 -8.82,3.099998 -10.27,7.379998 h -18.84 c -1.45,-4.29 -5.5,-7.379998 -10.27,-7.379998 -5.98,0 -10.84,4.859998 -10.84,10.839998 0,3.79 1.96,7.13 4.92,9.07 v 3.23 c 0,8.95 -7.28,16.23 -16.23,16.23 -8.950001,0 -16.230001,-7.28 -16.230001,-16.23 V 81.61 C 90.247899,68.59 100.8379,58 113.8579,58 h 68.92 c 13.02,0 23.61,10.59 23.61,23.61 z"
     fill="#000000"
     id="path500" />
  <line
     x1="125"
     y1="227"
     x2="175"
     y2="227"
     stroke="#212121"
     stroke-width="2"
     fill="black"
     id="line502" />
  <text
     id="title"
     x="50%"
     y="60%"
     dominant-baseline="middle"
     text-anchor="middle"
     fill="#000000"
     font-family="IBM Plex Sans Medium"
     font-size="2.5em">
        TITLE_TEMPLATE
    </text>
</svg>
