<?xml version="1.0" encoding="UTF-8"?>
<svg id="container" xmlns="http://www.w3.org/2000/svg" viewBox="0 0 300 460">
    <svg id="content" xmlns="http://www.w3.org/2000/svg" viewBox="0 0 150 230" overflow="hidden">
        <rect width="100%" height="100%" fill="COLOR_TEMPLATE"/>
        <path d="M109,42.39c-3.25,0-5.89,2.64-5.89,5.89s2.64,5.89,5.89,5.89,5.89-2.64,5.89-5.89-2.64-5.89-5.89-5.89Zm0,9.78c-2.14,0-3.89-1.75-3.89-3.89s1.75-3.89,3.89-3.89,3.89,1.75,3.89,3.89-1.75,3.89-3.89,3.89Z"/>
        <path d="M121.22,54.61c-3.25,0-5.89,2.64-5.89,5.89s2.64,5.89,5.89,5.89,5.89-2.64,5.89-5.89-2.64-5.89-5.89-5.89Zm0,9.78c-2.14,0-3.89-1.75-3.89-3.89s1.75-3.89,3.89-3.89,3.89,1.75,3.89,3.89-1.75,3.89-3.89,3.89Z"/>
        <path d="M97,54.61c-3.25,0-5.89,2.64-5.89,5.89s2.64,5.89,5.89,5.89,5.89-2.64,5.89-5.89-2.64-5.89-5.89-5.89Zm0,9.78c-2.14,0-3.89-1.75-3.89-3.89s1.75-3.89,3.89-3.89,3.89,1.75,3.89,3.89-1.75,3.89-3.89,3.89Z"/>
        <path d="M109,66.61c-3.25,0-5.89,2.64-5.89,5.89s2.64,5.89,5.89,5.89,5.89-2.64,5.89-5.89-2.64-5.89-5.89-5.89Zm0,9.78c-2.14,0-3.89-1.75-3.89-3.89s1.75-3.89,3.89-3.89,3.89,1.75,3.89,3.89-1.75,3.89-3.89,3.89Z"/>
        <path d="M46,45.5h-12v10h-10v12h10v10h12v-10h10v-12h-10v-10Zm8,12v8h-10v10h-8v-10h-10v-8h10v-10h8v10h10Z"/>
        <path d="M109.56,35.16H40.66c-14.12,0-25.61,11.49-25.61,25.61v41.34c0,10.05,8.18,18.23,18.23,18.23s18.23-8.18,18.23-18.23v-2.21c1.22,.47,2.54,.75,3.92,.75,5.98,0,10.84-4.86,10.84-10.84,0-.5-.05-.98-.11-1.46h17.91c-.07,.48-.11,.96-.11,1.46,0,5.98,4.86,10.84,10.84,10.84,1.38,0,2.7-.27,3.92-.75v2.21c0,10.05,8.18,18.23,18.23,18.23s18.23-8.18,18.23-18.23V60.77c0-14.12-11.49-25.61-25.61-25.61Zm-54.14,63.49c-4.88,0-8.84-3.97-8.84-8.84s3.97-8.84,8.84-8.84,8.84,3.97,8.84,8.84-3.97,8.84-8.84,8.84Zm30.53-8.84c0-4.88,3.97-8.84,8.84-8.84s8.84,3.97,8.84,8.84-3.97,8.84-8.84,8.84-8.84-3.97-8.84-8.84Zm47.22,12.3c0,8.95-7.28,16.23-16.23,16.23s-16.23-7.28-16.23-16.23v-3.23c2.96-1.94,4.92-5.28,4.92-9.07,0-5.98-4.86-10.84-10.84-10.84-4.77,0-8.82,3.1-10.27,7.38h-18.84c-1.45-4.29-5.5-7.38-10.27-7.38-5.98,0-10.84,4.86-10.84,10.84,0,3.79,1.96,7.13,4.92,9.07v3.23c0,8.95-7.28,16.23-16.23,16.23s-16.23-7.28-16.23-16.23V60.77c0-13.02,10.59-23.61,23.61-23.61H109.56c13.02,0,23.61,10.59,23.61,23.61v41.34Z"/>
        <text id="title" x="50%" y="70%" dominant-baseline="middle" text-anchor="middle" fill="#000000">
            TITLE_TEMPLATE
        </text>
    </svg>
</svg>
