<?xml version="1.0" encoding="UTF-8" standalone="no"?>
<svg
   width="300"
   height="460"
   viewBox="0 0 300 460"
   fill="none"
   version="1.1"
   id="svg560"
   xmlns="http://www.w3.org/2000/svg"
   xmlns:svg="http://www.w3.org/2000/svg">
  <defs
     id="defs564" />
  <rect
     width="300"
     height="460"
     fill="COLOR_TEMPLATE"
     id="rect539" />
  <path d="M193.2 64.8H106.8V163.2H193.2V64.8ZM190.8 160.8H109.2V67.2H190.8V160.8Z" fill="FOREGROUND_COLOR"/>
  <path d="M94.7998 52.8V187.2H205.2V52.8H94.7998ZM202.8 184.8H97.1998V55.2H202.8V184.8Z" fill="FOREGROUND_COLOR"/>
  <path d="M150 166.8C146.028 166.8 142.8 170.028 142.8 174C142.8 177.972 146.028 181.2 150 181.2C153.972 181.2 157.2 177.972 157.2 174C157.2 170.028 153.972 166.8 150 166.8ZM150 178.8C147.348 178.8 145.2 176.652 145.2 174C145.2 171.348 147.348 169.2 150 169.2C152.652 169.2 154.8 171.348 154.8 174C154.8 176.652 152.652 178.8 150 178.8Z" fill="FOREGROUND_COLOR"/>
  <path d="M177 127.956H123V130.356H177V127.956Z" fill="FOREGROUND_COLOR"/>
  <path d="M177 112.956H123V115.356H177V112.956Z" fill="FOREGROUND_COLOR"/>
  <path d="M177 97.956H123V100.356H177V97.956Z" fill="FOREGROUND_COLOR"/>
  <path d="M177 82.956H123V85.356H177V82.956Z" fill="FOREGROUND_COLOR"/>
  <path d="M177 142.956H123V145.356H177V142.956Z" fill="FOREGROUND_COLOR"/>
  <line
     x1="125"
     y1="227"
     x2="175"
     y2="227"
     stroke="FOREGROUND_COLOR"
     stroke-width="2"
     fill="FOREGROUND_COLOR"
     id="line557" />
  TITLE_TEMPLATE
</svg>
