<?xml version="1.0" encoding="UTF-8"?>
<svg id="container" xmlns="http://www.w3.org/2000/svg" viewBox="0 0 300 460">
    <svg id="content" xmlns="http://www.w3.org/2000/svg" viewBox="0 0 150 230" overflow="hidden">
        <rect width="100%" height="100%" fill="COLOR_TEMPLATE"/>
        <path d="M111,29H39V111H111V29Zm-2,80H41V31H109V109Z"/>
        <path d="M29,19v112H121V19H29Zm90,110H31V21H119v108Z"/>
        <path d="M75,114c-3.31,0-6,2.69-6,6s2.69,6,6,6,6-2.69,6-6-2.69-6-6-6Zm0,10c-2.21,0-4-1.79-4-4s1.79-4,4-4,4,1.79,4,4-1.79,4-4,4Z"/>
        <rect x="52.5" y="81.63" width="45" height="2"/>
        <rect x="52.5" y="69.13" width="45" height="2"/>
        <rect x="52.5" y="56.63" width="45" height="2"/>
        <rect x="52.5" y="44.13" width="45" height="2"/>
        <rect x="52.5" y="94.13" width="45" height="2"/>

        <text id="title" x="50%" y="70%" dominant-baseline="middle" text-anchor="middle" fill="#000000">
            TITLE_TEMPLATE
        </text>
    </svg>
</svg>
