<?xml version="1.0" encoding="UTF-8" standalone="no"?>
<svg
   width="300"
   height="460"
   viewBox="0 0 300 460"
   fill="none"
   version="1.1"
   id="svg560"
   xmlns="http://www.w3.org/2000/svg"
   xmlns:svg="http://www.w3.org/2000/svg">
  <defs
     id="defs564" />
  <rect
     width="300"
     height="460"
     fill="COLOR_TEMPLATE"
     id="rect539" />
  <path
     d="m 183.00322,66 h -72 v 82 h 72 z m -2,80 h -68 V 68 h 68 z"
     fill="FOREGROUND_COLOR"
     id="path541" />
  <path
     d="m 101.00322,56 v 112 h 92 V 56 Z m 90,110 h -88 V 58 h 88 z"
     fill="FOREGROUND_COLOR"
     id="path543" />
  <path
     d="m 147.00322,151 c -3.31,0 -6,2.69 -6,6 0,3.31 2.69,6 6,6 3.31,0 6,-2.69 6,-6 0,-3.31 -2.69,-6 -6,-6 z m 0,10 c -2.21,0 -4,-1.79 -4,-4 0,-2.21 1.79,-4 4,-4 2.21,0 4,1.79 4,4 0,2.21 -1.79,4 -4,4 z"
     fill="FOREGROUND_COLOR"
     id="path545" />
  <rect
     x="124.50322"
     y="118.63"
     width="45"
     height="2"
     fill="FOREGROUND_COLOR"
     id="rect547" />
  <rect
     x="124.50322"
     y="106.13"
     width="45"
     height="2"
     fill="FOREGROUND_COLOR"
     id="rect549" />
  <rect
     x="124.50322"
     y="93.630005"
     width="45"
     height="2"
     fill="FOREGROUND_COLOR"
     id="rect551" />
  <rect
     x="124.50322"
     y="81.130005"
     width="45"
     height="2"
     fill="FOREGROUND_COLOR"
     id="rect553" />
  <rect
     x="124.50322"
     y="131.13"
     width="45"
     height="2"
     fill="FOREGROUND_COLOR"
     id="rect555" />
  <line
     x1="125"
     y1="227"
     x2="175"
     y2="227"
     stroke="FOREGROUND_COLOR"
     stroke-width="2"
     fill="FOREGROUND_COLOR"
     id="line557" />
  <text
     id="title"
     x="50%"
     y="60%"
     dominant-baseline="middle"
     text-anchor="middle"
     fill="FOREGROUND_COLOR"
     font-family="IBM Plex Sans Medium"
     >
        TITLE_TEMPLATE
    </text>
</svg>
