<?xml version="1.0" encoding="UTF-8" standalone="no"?>
<svg
   width="300"
   height="460"
   viewBox="0 0 300 460"
   fill="none"
   version="1.1"
   id="svg605"
   xmlns="http://www.w3.org/2000/svg"
   xmlns:svg="http://www.w3.org/2000/svg">
  <defs
     id="defs609" />
  <rect
     width="300"
     height="460"
     fill="COLOR_TEMPLATE"
     id="rect596" />
  <path
     d="m 91.204253,56 v 92 H 205.39425 V 56 Z m 2,2 H 106.20425 V 71 H 93.204253 Z m 0,15 H 106.20425 V 86 H 93.204253 Z m 0,15 h 12.999997 v 13 H 93.204253 Z m 0,15 h 12.999997 v 13 H 93.204253 Z m 0,15 h 12.999997 v 13 H 93.204253 Z m 12.999997,28 H 93.204253 v -13 h 12.999997 z m 2,0 V 58 h 80.19 v 88 z m 95.19,0 h -13 v -13 h 13 z m 0,-15 h -13 v -13 h 13 z m 0,-15 h -13 v -13 h 13 z m 0,-15 h -13 V 88 h 13 z m 0,-15 h -13 V 73 h 13 z m -13,-15 V 58 h 13 v 13 z"
     fill="FOREGROUND_COLOR"
     id="path598" />
  <path
     d="m 134.16425,123.8 34.89,-21.8 -34.89,-21.8 v 43.61 z m 2,-40 29.11,18.2 -29.11,18.2 z"
     fill="FOREGROUND_COLOR"
     id="path600" />
  <line
     x1="125"
     y1="227"
     x2="175"
     y2="227"
     stroke="FOREGROUND_COLOR"
     stroke-width="2"
     fill="FOREGROUND_COLOR"
     id="line602" />
  <text
     id="title"
     x="50%"
     y="60%"
     dominant-baseline="middle"
     text-anchor="middle"
     fill="FOREGROUND_COLOR"
     font-family="IBM Plex Sans Medium"
     >
        TITLE_TEMPLATE
    </text>
</svg>
