<?xml version="1.0" encoding="UTF-8" standalone="no"?>
<svg
   width="300"
   height="460"
   viewBox="0 0 300 460"
   fill="none"
   version="1.1"
   id="svg605"
   xmlns="http://www.w3.org/2000/svg"
   xmlns:svg="http://www.w3.org/2000/svg">
  <defs
     id="defs609" />
  <rect
     width="300"
     height="460"
     fill="COLOR_TEMPLATE"
     id="rect596" />
  <path d="M81.5518 64.8V175.2H218.58V64.8H81.5518ZM83.9518 67.2H99.5518V82.8H83.9518V67.2ZM83.9518 85.2H99.5518V100.8H83.9518V85.2ZM83.9518 103.2H99.5518V118.8H83.9518V103.2ZM83.9518 121.2H99.5518V136.8H83.9518V121.2ZM83.9518 139.2H99.5518V154.8H83.9518V139.2ZM99.5518 172.8H83.9518V157.2H99.5518V172.8ZM101.952 172.8V67.2H198.18V172.8H101.952ZM216.18 172.8H200.58V157.2H216.18V172.8ZM216.18 154.8H200.58V139.2H216.18V154.8ZM216.18 136.8H200.58V121.2H216.18V136.8ZM216.18 118.8H200.58V103.2H216.18V118.8ZM216.18 100.8H200.58V85.2H216.18V100.8ZM200.58 82.8V67.2H216.18V82.8H200.58Z" fill="FOREGROUND_COLOR"/>
  <path d="M133.104 146.16L174.972 120L133.104 93.84V146.172V146.16ZM135.504 98.16L170.436 120L135.504 141.84V98.16Z" fill="FOREGROUND_COLOR"/>
  <line
     x1="125"
     y1="227"
     x2="175"
     y2="227"
     stroke="FOREGROUND_COLOR"
     stroke-width="2"
     fill="FOREGROUND_COLOR"
     id="line602" />
  TITLE_TEMPLATE
</svg>
