<?xml version="1.0" encoding="UTF-8"?>
<svg id="container" xmlns="http://www.w3.org/2000/svg" viewBox="0 0 300 460">
    <svg id="content" xmlns="http://www.w3.org/2000/svg" viewBox="0 0 150 230" overflow="hidden">
        <rect width="100%" height="100%" fill="white"/>
        <path d="M39,66.69v12.77h6.08l17.46,11.64V55.05l-17.46,11.64h-6.08Zm21.54-7.9v28.57l-14.85-9.9h-4.69v-8.77h4.69l14.85-9.9Z"/>
        <path d="M126,34v-10.22l-50.98,10.2L24.04,23.78v10.22H15.04V121h120V34h-9.04ZM26.04,26.22l47.96,9.59v9.19h2.04v-9.19l47.96-9.59V109.18l-47.96,9.59v-13.77h-2.04v13.77l-47.96-9.59V26.22Zm-9,9.78h7V110.82l40.95,8.18H17.04V36Zm116,83h-48.02l40.98-8.18V36h7.04V119Z"/>
        <path d="M76,73.08c0-4.9-2.93-7.4-3.05-7.5l-1.29,1.53c.09,.08,2.34,2.04,2.34,5.97s-2.24,5.88-2.33,5.96l1.28,1.54c.12-.1,3.05-2.6,3.05-7.5Z"/>
        <path d="M98.59,99.23l1.28,1.54c.45-.38,11.13-9.48,11.13-27.69s-10.67-27.31-11.13-27.69l-1.28,1.54c.1,.09,10.41,8.88,10.41,26.16s-10.31,26.07-10.41,26.16Z"/>
        <path d="M90.03,73.08c0,9.41-5.61,14.25-5.67,14.3l1.28,1.54c.26-.22,6.38-5.44,6.38-15.83s-6.12-15.62-6.38-15.83l-1.28,1.53c.06,.05,5.67,4.88,5.67,14.3Z"/>
        <text id="title" x="50%" y="70%" dominant-baseline="middle" text-anchor="middle" fill="#000000">
            TITLE_TEMPLATE
        </text>
    </svg>
</svg>
