<?xml version="1.0" encoding="UTF-8" standalone="no"?>
<svg
   width="300"
   height="460"
   viewBox="0 0 300 460"
   fill="none"
   version="1.1"
   id="svg650"
   xmlns="http://www.w3.org/2000/svg"
   xmlns:svg="http://www.w3.org/2000/svg">
  <defs
     id="defs654" />
  <rect
     width="300"
     height="460"
     fill="COLOR_TEMPLATE"
     id="rect635" />
  <path d="M106.8 110.028V125.352H114.096L135.048 139.32V96.06L114.096 110.028H106.8ZM132.648 100.548V134.832L114.828 122.952H109.2V112.428H114.828L132.648 100.548Z" fill="FOREGROUND_COLOR"/>
  <path d="M211.2 70.8V58.536L150.024 70.776L88.8479 58.536V70.8H78.0479V175.2H222.048V70.8H211.2ZM91.2479 61.464L148.8 72.972V84H151.248V72.972L208.8 61.464V161.016L151.248 172.524V156H148.8V172.524L91.2479 161.016V61.464V61.464ZM80.4479 73.2H88.8479V162.984L137.988 172.8H80.4479V73.2ZM219.648 172.8H162.024L211.2 162.984V73.2H219.648V172.8V172.8Z" fill="FOREGROUND_COLOR"/>
  <path d="M151.2 117.696C151.2 111.816 147.684 108.816 147.54 108.696L145.992 110.532C146.1 110.628 148.8 112.98 148.8 117.696C148.8 122.412 146.112 124.752 146.004 124.848L147.54 126.696C147.684 126.576 151.2 123.576 151.2 117.696Z" fill="FOREGROUND_COLOR"/>
  <path d="M178.308 149.076L179.844 150.924C180.384 150.468 193.2 139.548 193.2 117.696C193.2 95.844 180.396 84.924 179.844 84.468L178.308 86.316C178.428 86.424 190.8 96.972 190.8 117.708C190.8 138.444 178.428 148.992 178.308 149.1V149.076Z" fill="FOREGROUND_COLOR"/>
  <path d="M168.036 117.696C168.036 128.988 161.304 134.796 161.232 134.856L162.768 136.704C163.08 136.44 170.424 130.176 170.424 117.708C170.424 105.24 163.08 98.964 162.768 98.712L161.232 100.548C161.304 100.608 168.036 106.404 168.036 117.708V117.696Z" fill="FOREGROUND_COLOR"/>
  <line
     x1="125"
     y1="227"
     x2="175"
     y2="227"
     stroke="FOREGROUND_COLOR"
     stroke-width="2"
     fill="FOREGROUND_COLOR"
     id="line647" />
  TITLE_TEMPLATE
</svg>
