<?xml version="1.0" encoding="UTF-8" standalone="no"?>
<svg
   width="300"
   height="460"
   viewBox="0 0 300 460"
   fill="none"
   version="1.1"
   id="svg650"
   xmlns="http://www.w3.org/2000/svg"
   xmlns:svg="http://www.w3.org/2000/svg">
  <defs
     id="defs654" />
  <rect
     width="300"
     height="460"
     fill="COLOR_TEMPLATE"
     id="rect635" />
  <path
     d="m 106.53653,98.91 v 12.77 h 6.08 l 17.46,11.64 V 87.27 l -17.46,11.64 z m 21.54,-7.9 v 28.57 l -14.85,-9.9 h -4.69 v -8.77 h 4.69 z"
     fill="#000000"
     id="path637" />
  <path
     d="M 193.53653,66.22 V 56 l -50.98,10.2 L 91.576534,56 v 10.22 h -9 v 87 H 202.57653 v -87 z m -99.959996,-7.78 47.959996,9.59 v 9.19 h 2.04 v -9.19 l 47.96,-9.59 v 82.96 l -47.96,9.59 v -13.77 h -2.04 v 13.77 L 93.576534,141.4 Z m -9,9.78 h 7 v 74.82 l 40.949996,8.18 H 84.576534 Z m 115.999996,83 h -48.02 l 40.98,-8.18 V 68.22 h 7.04 z"
     fill="#000000"
     id="path639" />
  <path
     d="m 143.53653,105.3 c 0,-4.9 -2.93,-7.4 -3.05,-7.5 l -1.29,1.53 c 0.09,0.08 2.34,2.04 2.34,5.97 0,3.93 -2.24,5.88 -2.33,5.96 l 1.28,1.54 c 0.12,-0.1 3.05,-2.6 3.05,-7.5 z"
     fill="#000000"
     id="path641" />
  <path
     d="m 166.12653,131.45 1.28,1.54 c 0.45,-0.38 11.13,-9.48 11.13,-27.69 0,-18.21 -10.67,-27.31 -11.13,-27.69 l -1.28,1.54 c 0.1,0.09 10.41,8.88 10.41,26.16 0,17.28 -10.31,26.07 -10.41,26.16 z"
     fill="#000000"
     id="path643" />
  <path
     d="m 157.56653,105.3 c 0,9.41 -5.61,14.25 -5.67,14.3 l 1.28,1.54 c 0.26,-0.22 6.38,-5.44 6.38,-15.83 0,-10.39 -6.12,-15.62 -6.38,-15.83 l -1.28,1.53 c 0.06,0.05 5.67,4.88 5.67,14.3 z"
     fill="#000000"
     id="path645" />
  <line
     x1="125"
     y1="227"
     x2="175"
     y2="227"
     stroke="#212121"
     stroke-width="2"
     fill="black"
     id="line647" />
  <text
     id="title"
     x="50%"
     y="60%"
     dominant-baseline="middle"
     text-anchor="middle"
     fill="#000000"
     font-family="IBM Plex Sans Medium"
     font-size="2.5em">
        TITLE_TEMPLATE
    </text>
</svg>
