<?xml version="1.0" encoding="UTF-8"?>
<svg id="container" xmlns="http://www.w3.org/2000/svg" viewBox="0 0 300 460">
    <svg id="content" xmlns="http://www.w3.org/2000/svg" viewBox="0 0 150 230" overflow="hidden">
        <rect width="100%" height="100%" fill="COLOR_TEMPLATE"/>
        <path d="M75,131.87c-30.88,0-56-25.12-56-56S44.12,19.87,75,19.87s56,25.12,56,56-25.12,56-56,56Zm0-110c-29.78,0-54,24.22-54,54s24.22,54,54,54,54-24.22,54-54-24.22-54-54-54Z"/>
        <path d="M31,75.87h-2c0-25.36,20.64-46,46-46v2c-24.26,0-44,19.74-44,44Z"/>
        <path d="M41,75.87h-2c0-19.85,16.15-36,36-36v2c-18.75,0-34,15.25-34,34Z"/>
        <path d="M75,121.87v-2c24.26,0,44-19.74,44-44h2c0,25.36-20.64,46-46,46Z"/>
        <path d="M75,111.87v-2c18.75,0,34-15.25,34-34h2c0,19.85-16.15,36-36,36Z"/>
        <path d="M75,96.87c-11.58,0-21-9.42-21-21s9.42-21,21-21,21,9.42,21,21-9.42,21-21,21Zm0-40c-10.48,0-19,8.52-19,19s8.52,19,19,19,19-8.52,19-19-8.52-19-19-19Z"/>
        <path d="M75,81.87c-3.31,0-6-2.69-6-6s2.69-6,6-6,6,2.69,6,6-2.69,6-6,6Zm0-10c-2.21,0-4,1.79-4,4s1.79,4,4,4,4-1.79,4-4-1.79-4-4-4Z"/>
        <text id="title" x="50%" y="70%" dominant-baseline="middle" text-anchor="middle" fill="#000000" font-family="IBM Plex Sans Medium" font-size="0.9em">
            TITLE_TEMPLATE
        </text>
    </svg>
</svg>
