<?xml version="1.0" encoding="UTF-8" standalone="no"?>
<svg
   width="300"
   height="460"
   viewBox="0 0 300 460"
   fill="none"
   version="1.1"
   id="svg257"
   xmlns="http://www.w3.org/2000/svg"
   xmlns:svg="http://www.w3.org/2000/svg">
  <defs
     id="defs261" />
  <rect
     width="300"
     height="460"
     fill="COLOR_TEMPLATE"
     id="rect244" />
  <path
     d="m 165.80589,121.04 c -1.43,-1.6 -3.51,-2.61 -5.82,-2.61 -4.31,0 -7.82,3.51 -7.82,7.82 0,4.31 3.51,7.82 7.82,7.82 4.31,0 7.82,-3.51 7.82,-7.82 v -29.83 0 c 0,0 0,-1.08 0,-1.08 v -3.18 0 l -0.02,-11.41 -38.34,6.39 v 40.72 c -1.43,-1.6 -3.51,-2.61 -5.82,-2.61 -4.31,0 -7.82,3.51 -7.82,7.82 0,4.31 3.51,7.82 7.82,7.82 4.31,0 7.82,-3.51 7.82,-7.82 v -30.59 l 34.36,-5.73 v 24.3 z m -5.82,11.02 c -3.21,0 -5.82,-2.61 -5.82,-5.82 0,-3.21 2.61,-5.82 5.82,-5.82 3.21,0 5.82,2.61 5.82,5.82 0,3.21 -2.61,5.82 -5.82,5.82 z m -36.36,6.82 c -3.21,0 -5.82,-2.61 -5.82,-5.82 0,-3.21 2.61,-5.82 5.82,-5.82 3.21,0 5.82,2.61 5.82,5.82 0,3.21 -2.61,5.82 -5.82,5.82 z m 7.82,-38.44 V 88.83 l 34.34,-5.73 0.02,11.61 z"
     fill="FOREGROUND_COLOR"
     id="path246" />
  <path
     d="m 146.80589,56 c -30.88,0 -56.000001,25.12 -56.000001,56 0,30.88 25.120001,56 56.000001,56 30.88,0 56,-25.12 56,-56 0,-30.88 -25.12,-56 -56,-56 z m 0,110 c -29.78,0 -54.000001,-24.22 -54.000001,-54 0,-29.78 24.220001,-54 54.000001,-54 29.78,0 54,24.22 54,54 0,29.78 -24.22,54 -54,54 z"
     fill="FOREGROUND_COLOR"
     id="path248" />
  <path
     d="m 146.80589,66 c -25.36,0 -46,20.64 -46,46 h 2 c 0,-24.26 19.74,-44 44,-44 z"
     fill="FOREGROUND_COLOR"
     id="path250" />
  <path
     d="m 190.80589,112 c 0,24.26 -19.74,44 -44,44 v 2 c 25.36,0 46,-20.64 46,-46 z"
     fill="FOREGROUND_COLOR"
     id="path252" />
  <line
     x1="125"
     y1="227"
     x2="175"
     y2="227"
     stroke="FOREGROUND_COLOR"
     stroke-width="2"
     fill="FOREGROUND_COLOR"
     id="line254" />
  <text
     id="title"
     x="50%"
     y="60%"
     dominant-baseline="middle"
     text-anchor="middle"
     fill="FOREGROUND_COLOR"
     font-family="IBM Plex Sans Medium">
        TITLE_TEMPLATE
    </text>
</svg>
