<?xml version="1.0" encoding="UTF-8" standalone="no"?>
<svg
   width="300"
   height="460"
   viewBox="0 0 300 460"
   fill="none"
   version="1.1"
   id="svg702"
   xmlns="http://www.w3.org/2000/svg"
   xmlns:svg="http://www.w3.org/2000/svg">
  <defs
     id="defs706" />
  <rect
     width="300"
     height="460"
     fill="COLOR_TEMPLATE"
     id="rect683" />
  <path
     d="m 147.19152,168 c -30.88,0 -56,-25.12 -56,-56 0,-30.88 25.12,-56 56,-56 30.88,0 56,25.12 56,56 0,30.88 -25.12,56 -56,56 z m 0,-110 c -29.78,0 -54,24.22 -54,54 0,29.78 24.22,54 54,54 29.78,0 54,-24.22 54,-54 0,-29.78 -24.22,-54 -54,-54 z"
     fill="#000000"
     id="path685" />
  <path
     d="m 103.19152,112 h -2 c 0,-25.36 20.64,-46 46,-46 v 2 c -24.26,0 -44,19.74 -44,44 z"
     fill="#000000"
     id="path687" />
  <path
     d="m 113.19152,112 h -2 c 0,-19.85 16.15,-36 36,-36 v 2 c -18.75,0 -34,15.25 -34,34 z"
     fill="#000000"
     id="path689" />
  <path
     d="m 147.19152,158 v -2 c 24.26,0 44,-19.74 44,-44 h 2 c 0,25.36 -20.64,46 -46,46 z"
     fill="#000000"
     id="path691" />
  <path
     d="m 147.19152,148 v -2 c 18.75,0 34,-15.25 34,-34 h 2 c 0,19.85 -16.15,36 -36,36 z"
     fill="#000000"
     id="path693" />
  <path
     d="m 147.19152,133 c -11.58,0 -21,-9.42 -21,-21 0,-11.58 9.42,-21 21,-21 11.58,0 21,9.42 21,21 0,11.58 -9.42,21 -21,21 z m 0,-40 c -10.48,0 -19,8.52 -19,19 0,10.48 8.52,19 19,19 10.48,0 19,-8.52 19,-19 0,-10.48 -8.52,-19 -19,-19 z"
     fill="#000000"
     id="path695" />
  <path
     d="m 147.19152,118 c -3.31,0 -6,-2.69 -6,-6 0,-3.31 2.69,-6 6,-6 3.31,0 6,2.69 6,6 0,3.31 -2.69,6 -6,6 z m 0,-10 c -2.21,0 -4,1.79 -4,4 0,2.21 1.79,4 4,4 2.21,0 4,-1.79 4,-4 0,-2.21 -1.79,-4 -4,-4 z"
     fill="#000000"
     id="path697" />
  <line
     x1="125"
     y1="227"
     x2="175"
     y2="227"
     stroke="#212121"
     stroke-width="2"
     fill="black"
     id="line699" />
  <text
     id="title"
     x="50%"
     y="60%"
     dominant-baseline="middle"
     text-anchor="middle"
     fill="#000000"
     font-family="IBM Plex Sans Medium"
     font-size="2.5em">
        TITLE_TEMPLATE
    </text>
</svg>
