<?xml version="1.0" encoding="UTF-8" standalone="no"?>
<svg
   width="300"
   height="460"
   viewBox="0 0 300 460"
   fill="none"
   version="1.1"
   id="svg257"
   xmlns="http://www.w3.org/2000/svg"
   xmlns:svg="http://www.w3.org/2000/svg">
  <defs
     id="defs261" />
  <rect
     width="300"
     height="460"
     fill="COLOR_TEMPLATE"
     id="rect244" />
  <path d="M172.8 130.848C171.084 128.928 168.588 127.716 165.816 127.716C160.644 127.716 156.432 131.928 156.432 137.1C156.432 142.272 160.644 146.484 165.816 146.484C170.988 146.484 175.2 142.272 175.2 137.1V101.304V100.008V96.192L175.176 82.5L129.168 90.168V139.032C127.452 137.112 124.956 135.9 122.184 135.9C117.012 135.9 112.8 140.112 112.8 145.284C112.8 150.456 117.012 154.668 122.184 154.668C127.356 154.668 131.568 150.456 131.568 145.284V108.576L172.8 101.7V130.86V130.848ZM165.816 144.072C161.964 144.072 158.832 140.94 158.832 137.088C158.832 133.236 161.964 130.104 165.816 130.104C169.668 130.104 172.8 133.236 172.8 137.088C172.8 140.94 169.668 144.072 165.816 144.072ZM122.184 152.256C118.332 152.256 115.2 149.124 115.2 145.272C115.2 141.42 118.332 138.288 122.184 138.288C126.036 138.288 129.168 141.42 129.168 145.272C129.168 149.124 126.036 152.256 122.184 152.256ZM131.568 106.128V92.196L172.776 85.32L172.8 99.252L131.568 106.128V106.128Z" fill="FOREGROUND_COLOR"/>
  <path d="M150 52.8C112.944 52.8 82.7998 82.944 82.7998 120C82.7998 157.056 112.944 187.2 150 187.2C187.056 187.2 217.2 157.056 217.2 120C217.2 82.944 187.056 52.8 150 52.8ZM150 184.8C114.264 184.8 85.1998 155.736 85.1998 120C85.1998 84.264 114.264 55.2 150 55.2C185.736 55.2 214.8 84.264 214.8 120C214.8 155.736 185.736 184.8 150 184.8Z" fill="FOREGROUND_COLOR"/>
  <path d="M150 64.8C119.568 64.8 94.7998 89.568 94.7998 120H97.1998C97.1998 90.888 120.888 67.2 150 67.2V64.8Z" fill="FOREGROUND_COLOR"/>
  <path d="M202.8 120C202.8 149.112 179.112 172.8 150 172.8V175.2C180.432 175.2 205.2 150.432 205.2 120H202.8Z" fill="FOREGROUND_COLOR"/>
  <line
     x1="125"
     y1="227"
     x2="175"
     y2="227"
     stroke="FOREGROUND_COLOR"
     stroke-width="2"
     fill="FOREGROUND_COLOR"
     id="line254" />
  TITLE_TEMPLATE
</svg>
