<?xml version="1.0" encoding="UTF-8" standalone="no"?>
<svg
   width="300"
   height="460"
   viewBox="0 0 300 460"
   fill="none"
   version="1.1"
   id="svg11"
   xmlns="http://www.w3.org/2000/svg"
   xmlns:svg="http://www.w3.org/2000/svg">
  <defs
     id="defs15" />
  <rect
     width="300"
     height="460"
     fill="COLOR_TEMPLATE"
     id="rect2" />
  <path d="M187.26 64.548L187.212 46.272L97.6678 64.548H97.5479V187.452H202.452V64.548H187.26ZM184.824 49.224L184.86 64.548H109.68L184.824 49.224ZM200.052 185.064H99.9479V66.948H200.052V185.052V185.064Z" fill="FOREGROUND_COLOR"/>
  <path d="M138.816 171.252C145.584 171.252 149.016 166.2 149.016 156.252V150.216C155.22 149.796 160.164 146.124 162.072 140.412C164.064 134.496 162.216 128.112 157.476 124.524C154.872 122.556 151.908 121.584 149.004 121.656V113.376C168.492 103.692 167.232 91.596 167.004 90.144C166.944 84.564 162.396 80.052 156.804 80.052C151.92 80.052 146.676 83.364 146.604 92.652V111.888C133.836 118.356 129.996 129.492 131.892 137.784C133.536 144.972 139.248 149.748 146.604 150.216V156.252C146.604 167.544 142.152 168.852 138.804 168.852C134.508 168.852 131.004 165.348 131.004 161.052H128.604C128.604 166.68 133.176 171.252 138.804 171.252H138.816ZM149.016 92.664C149.064 86.172 151.908 82.452 156.816 82.452C161.112 82.452 164.616 85.956 164.616 90.252L164.64 90.48C164.724 90.936 166.452 101.58 149.016 110.688V92.664ZM149.016 124.068C151.368 123.984 153.864 124.8 156.036 126.444C159.948 129.408 161.46 134.712 159.804 139.656C158.196 144.432 154.212 147.42 149.016 147.816V124.068V124.068ZM134.244 137.256C132.612 130.116 135.876 120.564 146.616 114.612V121.992C145.848 122.184 145.104 122.46 144.384 122.82C140.916 124.572 138.876 128.028 138.924 132.072L141.324 132.048C141.288 128.892 142.8 126.312 145.464 124.968C145.836 124.776 146.22 124.62 146.616 124.488V147.816C140.34 147.372 135.648 143.412 134.244 137.244V137.256Z" fill="FOREGROUND_COLOR"/>
  <line
     x1="125"
     y1="227"
     x2="175"
     y2="227"
     stroke="FOREGROUND_COLOR"
     stroke-width="2"
     fill="FOREGROUND_COLOR"
     id="line8" />
  TITLE_TEMPLATE
</svg>
