<?xml version="1.0" encoding="UTF-8" standalone="no"?>
<svg
   width="300"
   height="460"
   viewBox="0 0 300 460"
   fill="none"
   version="1.1"
   id="svg11"
   xmlns="http://www.w3.org/2000/svg"
   xmlns:svg="http://www.w3.org/2000/svg">
  <defs
     id="defs15" />
  <rect
     width="300"
     height="460"
     fill="COLOR_TEMPLATE"
     id="rect2" />
  <path
     d="m 178.78391,71.23 -0.04,-15.23 -74.62,15.23 h -0.1 v 102.42 h 87.42 V 71.23 Z m -2.03,-12.77 0.03,12.77 h -62.65 z m 12.69,113.2 h -83.42 V 73.23 h 83.42 v 98.42 z"
     fill="#000000"
     id="path4" />
  <path
     d="m 138.41391,160.15 c 5.64,0 8.5,-4.21 8.5,-12.5 v -5.03 c 5.17,-0.35 9.29,-3.41 10.88,-8.17 1.66,-4.93 0.12,-10.25 -3.83,-13.24 -2.17,-1.64 -4.64,-2.45 -7.06,-2.39 v -6.9 c 16.24,-8.07 15.19,-18.15 15,-19.36 -0.05,-4.65 -3.84,-8.41 -8.5,-8.41 -4.07,0 -8.44,2.76 -8.5,10.5 v 16.03 c -10.64,5.39 -13.84,14.67 -12.26,21.58 1.37,5.99 6.13,9.97 12.26,10.36 v 5.03 c 0,9.41 -3.71,10.5 -6.5,10.5 -3.58,0 -6.5,-2.92 -6.5,-6.5 h -2 c 0,4.69 3.81,8.5 8.5,8.5 z m 8.5,-65.49 c 0.04,-5.41 2.41,-8.51 6.5,-8.51 3.58,0 6.5,2.92 6.5,6.5 l 0.02,0.19 c 0.07,0.38 1.51,9.25 -13.02,16.84 z m 0,26.17 c 1.96,-0.07 4.04,0.61 5.85,1.98 3.26,2.47 4.52,6.89 3.14,11.01 -1.34,3.98 -4.66,6.47 -8.99,6.8 z m -12.31,10.99 c -1.36,-5.95 1.36,-13.91 10.31,-18.87 v 6.15 c -0.64,0.16 -1.26,0.39 -1.86,0.69 -2.89,1.46 -4.59,4.34 -4.55,7.71 l 2,-0.02 c -0.03,-2.63 1.23,-4.78 3.45,-5.9 0.31,-0.16 0.63,-0.29 0.96,-0.4 v 19.44 c -5.23,-0.37 -9.14,-3.67 -10.31,-8.81 z"
     fill="#000000"
     id="path6" />
  <line
     x1="125"
     y1="227"
     x2="175"
     y2="227"
     stroke="#212121"
     stroke-width="2"
     fill="black"
     id="line8" />
  <text
     id="title"
     x="50%"
     y="60%"
     dominant-baseline="middle"
     text-anchor="middle"
     fill="#000000"
     font-family="IBM Plex Sans Medium">
        TITLE_TEMPLATE
    </text>
</svg>
