<?xml version="1.0" encoding="UTF-8" standalone="no"?>
<svg
   width="300"
   height="460"
   viewBox="0 0 300 460"
   fill="none"
   version="1.1"
   id="svg746"
   xmlns="http://www.w3.org/2000/svg"
   xmlns:svg="http://www.w3.org/2000/svg">
  <defs
     id="defs750" />
  <rect
     width="300"
     height="460"
     fill="COLOR_TEMPLATE"
     id="rect737" />
  <path
     d="m 178.44328,70 -0.04,-14 -74.72,14 v 102.42 h 87.42 V 70 Z m -2.03,-11.55 0.03,11.55 h -61.86 l 61.84,-11.55 z m 12.69,111.97 h -83.42 V 72 h 83.42 z"
     fill="#000000"
     id="path739" />
  <path
     d="m 123.60328,154.81 c 4.63,0 8.39,-3.76 8.39,-8.39 v -33.23 l 37.41,-6.24 v 26.65 c -1.54,-1.81 -3.83,-2.97 -6.39,-2.97 -4.63,0 -8.39,3.76 -8.39,8.39 0,4.63 3.76,8.39 8.39,8.39 4.63,0 8.39,-3.76 8.39,-8.39 l -0.03,-49.21 -41.38,6.9 v 44.28 c -1.54,-1.81 -3.83,-2.97 -6.39,-2.97 -4.63,0 -8.39,3.76 -8.39,8.39 0,4.63 3.76,8.39 8.39,8.39 z m 39.41,-9.39 c -3.52,0 -6.39,-2.87 -6.39,-6.39 0,-3.52 2.87,-6.39 6.39,-6.39 3.52,0 6.39,2.87 6.39,6.39 0,3.52 -2.87,6.39 -6.39,6.39 z m -31.02,-47.01 37.39,-6.24 0.02,12.75 -37.41,6.23 V 98.4 Z m -8.39,41.62 c 3.52,0 6.39,2.87 6.39,6.39 0,3.52 -2.87,6.39 -6.39,6.39 -3.52,0 -6.39,-2.87 -6.39,-6.39 0,-3.52 2.87,-6.39 6.39,-6.39 z"
     fill="#000000"
     id="path741" />
  <line
     x1="125"
     y1="227"
     x2="175"
     y2="227"
     stroke="#212121"
     stroke-width="2"
     fill="black"
     id="line743" />
  <text
     id="title"
     x="50%"
     y="60%"
     dominant-baseline="middle"
     text-anchor="middle"
     fill="#000000"
     font-family="IBM Plex Sans Medium"
     >
        TITLE_TEMPLATE
    </text>
</svg>
