<?xml version="1.0" encoding="UTF-8"?>
<svg id="container" xmlns="http://www.w3.org/2000/svg" viewBox="0 0 300 460">
    <svg id="content" xmlns="http://www.w3.org/2000/svg" viewBox="0 0 150 230" overflow="hidden">
        <rect width="100%" height="100%" fill="COLOR_TEMPLATE"/>
        <path d="M105.76,29l-.04-14L31,29v102.42H118.42V29h-12.66Zm-2.03-11.55l.03,11.55H41.9l61.84-11.55Zm12.69,111.97H33V31H116.42v98.42Z"/>
        <path d="M50.92,113.81c4.63,0,8.39-3.76,8.39-8.39v-33.23l37.41-6.24v26.65c-1.54-1.81-3.83-2.97-6.39-2.97-4.63,0-8.39,3.76-8.39,8.39s3.76,8.39,8.39,8.39,8.39-3.76,8.39-8.39l-.03-49.21-41.38,6.9v44.28c-1.54-1.81-3.83-2.97-6.39-2.97-4.63,0-8.39,3.76-8.39,8.39s3.76,8.39,8.39,8.39Zm39.41-9.39c-3.52,0-6.39-2.87-6.39-6.39s2.87-6.39,6.39-6.39,6.39,2.87,6.39,6.39-2.87,6.39-6.39,6.39Zm-31.02-47.01l37.39-6.24,.02,12.75-37.41,6.23v-12.75Zm-8.39,41.62c3.52,0,6.39,2.87,6.39,6.39s-2.87,6.39-6.39,6.39-6.39-2.87-6.39-6.39,2.87-6.39,6.39-6.39Z"/>
        <text id="title" x="50%" y="70%" dominant-baseline="middle" text-anchor="middle" fill="#000000" font-family="Arial, Helvetica, sans-serif" font-size="0.9em">
            TITLE_TEMPLATE
        </text>
    </svg>
</svg>
