<?xml version="1.0" encoding="UTF-8"?>
<svg id="container" xmlns="http://www.w3.org/2000/svg" viewBox="0 0 300 460">
    <svg id="content" xmlns="http://www.w3.org/2000/svg" viewBox="0 0 150 230" overflow="hidden">
        <rect width="100%" height="100%" fill="COLOR_TEMPLATE"/>
        <rect x="74" y="119.65" width="2" height="7.85"/>
        <rect x="59.01" y="126.5" width="31.98" height="2"/>
        <path d="M75,113.5c-6.07,0-11-4.93-11-11v-25c0-6.07,4.93-11,11-11s11,4.93,11,11v25c0,6.07-4.93,11-11,11Zm0-45c-4.96,0-9,4.04-9,9v25c0,4.96,4.04,9,9,9s9-4.04,9-9v-25c0-4.96-4.04-9-9-9Z"/>
        <path d="M75,120.66c-9.94,0-18.03-8.09-18.03-18.03v-11.34h8.03v2h-6.03v9.34c0,8.84,7.19,16.03,16.03,16.03s16.03-7.19,16.03-16.03v-9.34h-6.03v-2h8.03v11.34c0,9.94-8.09,18.03-18.03,18.03Z"/>
        <path d="M49.54,127.39c-18.84-9.63-30.54-28.75-30.54-49.89,0-30.88,25.12-56,56-56s56,25.12,56,56c0,21.14-11.7,40.26-30.54,49.89l-.91-1.78c18.17-9.29,29.45-27.72,29.45-48.11,0-29.78-24.22-54-54-54S21,47.72,21,77.5c0,20.39,11.29,38.82,29.45,48.11l-.91,1.78Z"/>
        <path d="M100.63,109.51l-1.25-1.56c9.29-7.45,14.62-18.55,14.62-30.45,0-21.5-17.5-39-39-39s-39,17.5-39,39c0,11.9,5.33,22.99,14.62,30.45l-1.25,1.56c-9.77-7.83-15.37-19.5-15.37-32.01,0-22.61,18.39-41,41-41s41,18.39,41,41c0,12.51-5.6,24.17-15.37,32.01Z"/>
        <path d="M101,77.5h-2c0-13.23-10.77-24-24-24s-24,10.77-24,24h-2c0-14.34,11.66-26,26-26s26,11.66,26,26Z"/>
        <text id="title" x="50%" y="70%" dominant-baseline="middle" text-anchor="middle" fill="#000000">
            TITLE_TEMPLATE
        </text>
    </svg>
</svg>
