<?xml version="1.0" encoding="UTF-8" standalone="no"?>
<svg
   width="300"
   height="460"
   viewBox="0 0 300 460"
   fill="none"
   version="1.1"
   id="svg795"
   xmlns="http://www.w3.org/2000/svg"
   xmlns:svg="http://www.w3.org/2000/svg">
  <defs
     id="defs799" />
  <rect
     width="300"
     height="460"
     fill="COLOR_TEMPLATE"
     id="rect776" />
  <rect
     x="145.29106"
     y="154.14999"
     width="2"
     height="7.8499999"
     fill="FOREGROUND_COLOR"
     id="rect778" />
  <rect
     x="130.30106"
     y="161"
     width="31.98"
     height="2"
     fill="FOREGROUND_COLOR"
     id="rect780" />
  <path
     d="m 146.29106,148 c -6.07,0 -11,-4.93 -11,-11 v -25 c 0,-6.07 4.93,-11 11,-11 6.07,0 11,4.93 11,11 v 25 c 0,6.07 -4.93,11 -11,11 z m 0,-45 c -4.96,0 -9,4.04 -9,9 v 25 c 0,4.96 4.04,9 9,9 4.96,0 9,-4.04 9,-9 v -25 c 0,-4.96 -4.04,-9 -9,-9 z"
     fill="FOREGROUND_COLOR"
     id="path782" />
  <path
     d="m 146.29106,155.16 c -9.94,0 -18.03,-8.09 -18.03,-18.03 v -11.34 h 8.03 v 2 h -6.03 v 9.34 c 0,8.84 7.19,16.03 16.03,16.03 8.84,0 16.03,-7.19 16.03,-16.03 v -9.34 h -6.03 v -2 h 8.03 v 11.34 c 0,9.94 -8.09,18.03 -18.03,18.03 z"
     fill="FOREGROUND_COLOR"
     id="path784" />
  <path
     d="m 120.83106,161.89 c -18.84,-9.63 -30.540001,-28.75 -30.540001,-49.89 0,-30.88 25.120001,-56 56.000001,-56 30.88,0 56,25.12 56,56 0,21.14 -11.7,40.26 -30.54,49.89 l -0.91,-1.78 c 18.17,-9.29 29.45,-27.72 29.45,-48.11 0,-29.78 -24.22,-54 -54,-54 -29.78,0 -54.000001,24.22 -54.000001,54 0,20.39 11.290001,38.82 29.450001,48.11 z"
     fill="FOREGROUND_COLOR"
     id="path786" />
  <path
     d="m 171.92106,144.01 -1.25,-1.56 c 9.29,-7.45 14.62,-18.55 14.62,-30.45 0,-21.5 -17.5,-39 -39,-39 -21.5,0 -39,17.5 -39,39 0,11.9 5.33,22.99 14.62,30.45 l -1.25,1.56 c -9.77,-7.83 -15.37,-19.5 -15.37,-32.01 0,-22.61 18.39,-41 41,-41 22.61,0 41,18.39 41,41 0,12.51 -5.6,24.17 -15.37,32.01 z"
     fill="FOREGROUND_COLOR"
     id="path788" />
  <path
     d="m 172.29106,112 h -2 c 0,-13.23 -10.77,-24 -24,-24 -13.23,0 -24,10.77 -24,24 h -2 c 0,-14.34 11.66,-26 26,-26 14.34,0 26,11.66 26,26 z"
     fill="FOREGROUND_COLOR"
     id="path790" />
  <line
     x1="125"
     y1="227"
     x2="175"
     y2="227"
     stroke="FOREGROUND_COLOR"
     stroke-width="2"
     fill="FOREGROUND_COLOR"
     id="line792" />
  <text
     id="title"
     x="50%"
     y="60%"
     dominant-baseline="middle"
     text-anchor="middle"
     fill="FOREGROUND_COLOR"
     font-family="IBM Plex Sans Medium"
     >
        TITLE_TEMPLATE
    </text>
</svg>
