<?xml version="1.0" encoding="UTF-8" standalone="no"?>
<svg
   width="300"
   height="460"
   viewBox="0 0 300 460"
   fill="none"
   version="1.1"
   id="svg795"
   xmlns="http://www.w3.org/2000/svg"
   xmlns:svg="http://www.w3.org/2000/svg">
  <defs
     id="defs799" />
  <rect
     width="300"
     height="460"
     fill="COLOR_TEMPLATE"
     id="rect776" />
  <path d="M151.2 173.58H148.8V183H151.2V173.58Z" fill="FOREGROUND_COLOR"/>
  <path d="M169.188 181.8H130.812V184.2H169.188V181.8Z" fill="FOREGROUND_COLOR"/>
  <path d="M150 166.2C142.716 166.2 136.8 160.284 136.8 153V123C136.8 115.716 142.716 109.8 150 109.8C157.284 109.8 163.2 115.716 163.2 123V153C163.2 160.284 157.284 166.2 150 166.2ZM150 112.2C144.048 112.2 139.2 117.048 139.2 123V153C139.2 158.952 144.048 163.8 150 163.8C155.952 163.8 160.8 158.952 160.8 153V123C160.8 117.048 155.952 112.2 150 112.2Z" fill="FOREGROUND_COLOR"/>
  <path d="M150 174.792C138.072 174.792 128.364 165.084 128.364 153.156V139.548H138V141.948H130.764V153.156C130.764 163.764 139.392 172.392 150 172.392C160.608 172.392 169.236 163.764 169.236 153.156V141.948H162V139.548H171.636V153.156C171.636 165.084 161.928 174.792 150 174.792Z" fill="FOREGROUND_COLOR"/>
  <path d="M119.448 182.868C96.8398 171.312 82.7998 148.368 82.7998 123C82.7998 85.944 112.944 55.8 150 55.8C187.056 55.8 217.2 85.944 217.2 123C217.2 148.368 203.16 171.312 180.552 182.868L179.46 180.732C201.264 169.584 214.8 147.468 214.8 123C214.8 87.264 185.736 58.2 150 58.2C114.264 58.2 85.1998 87.264 85.1998 123C85.1998 147.468 98.7478 169.584 120.54 180.732L119.448 182.868V182.868Z" fill="FOREGROUND_COLOR"/>
  <path d="M180.756 161.412L179.256 159.54C190.404 150.6 196.8 137.28 196.8 123C196.8 97.2 175.8 76.2 150 76.2C124.2 76.2 103.2 97.2 103.2 123C103.2 137.28 109.596 150.588 120.744 159.54L119.244 161.412C107.52 152.016 100.8 138.012 100.8 123C100.8 95.868 122.868 73.8 150 73.8C177.132 73.8 199.2 95.868 199.2 123C199.2 138.012 192.48 152.004 180.756 161.412V161.412Z" fill="FOREGROUND_COLOR"/>
  <path d="M181.2 123H178.8C178.8 107.124 165.876 94.2 150 94.2C134.124 94.2 121.2 107.124 121.2 123H118.8C118.8 105.792 132.792 91.8 150 91.8C167.208 91.8 181.2 105.792 181.2 123Z" fill="FOREGROUND_COLOR"/>
  <line
     x1="125"
     y1="227"
     x2="175"
     y2="227"
     stroke="FOREGROUND_COLOR"
     stroke-width="2"
     fill="FOREGROUND_COLOR"
     id="line792" />
  TITLE_TEMPLATE
</svg>
