<?xml version="1.0" encoding="UTF-8" standalone="no"?>
<svg
   width="300"
   height="460"
   viewBox="0 0 300 460"
   fill="none"
   version="1.1"
   id="svg845"
   xmlns="http://www.w3.org/2000/svg"
   xmlns:svg="http://www.w3.org/2000/svg">
  <defs
     id="defs849" />
  <rect
     width="300"
     height="460"
     fill="COLOR_TEMPLATE"
     id="rect830" />
  <path d="M187.152 64.8L187.104 48L97.6081 64.8H97.4761V186.78H202.428V64.8H187.152ZM184.716 50.94L184.752 64.8H110.664L184.728 50.94H184.716ZM200.028 184.38H99.8761V67.2H200.028V184.38Z" fill="FOREGROUND_COLOR"/>
  <path d="M185.952 82.8H113.952V115.2H185.952V82.8V82.8ZM183.552 112.8H116.352V85.2H183.552V112.8V112.8Z" fill="FOREGROUND_COLOR"/>
  <path d="M185.952 148.8H113.952V151.2H185.952V148.8Z" fill="FOREGROUND_COLOR"/>
  <path d="M185.952 130.8H113.952V133.2H185.952V130.8Z" fill="FOREGROUND_COLOR"/>
  <path d="M185.952 166.8H113.952V169.2H185.952V166.8Z" fill="FOREGROUND_COLOR"/>
  <line
     x1="125"
     y1="227"
     x2="175"
     y2="227"
     stroke="FOREGROUND_COLOR"
     stroke-width="2"
     fill="FOREGROUND_COLOR"
     id="line842" />
  TITLE_TEMPLATE
</svg>
